<?xml version="1.0" encoding="utf-8"?>
<!-- Generator: Adobe Illustrator 27.3.1, SVG Export Plug-In . SVG Version: 6.00 Build 0)  -->
<svg version="1.1" id="OBT_x5F_Logo" xmlns="http://www.w3.org/2000/svg" xmlns:xlink="http://www.w3.org/1999/xlink" x="0px"
	 y="0px" viewBox="0 0 428.8 193.7" style="enable-background:new 0 0 428.8 193.7;" xml:space="preserve">
<style type="text/css">
	.st0{fill-rule:evenodd;clip-rule:evenodd;}
	.st1{fill:#AF191E;}
</style>
<path d="M62.8,193.7c-39.6,0-62.8-20-62.8-58.6c0-38,23.2-58.6,62.8-58.6c39.6,0,63.3,20.6,63.3,58.6
	C126.1,173.8,102.4,193.7,62.8,193.7z M62.8,166.5c17.2,0,17.7-19.2,17.9-31.3c-0.2-10.6-1.3-31.3-17.9-31.3
	c-16.1,0-17.4,20.8-17.4,31.3C45.4,147.3,47.2,166.5,62.8,166.5z"/>
<path d="M137.3,78.5h71.3c19.6,0,39,6.3,39,27.9c0,15.6-8.3,23.9-23.4,27.8v0.3c15.7,2.1,25.5,14.4,25.5,25.8
	c0,28.6-23,31.5-46.6,31.5h-65.7V78.5z M178.2,168.4h11.4c8,0,16.6-2.9,16.6-11.7c0-9.7-8.1-11.5-16.2-11.5h-11.7V168.4z
	 M178.2,121.8h10.9c7.6,0,15.9-2.3,15.9-10.9c0-8.4-7.1-11-14.9-11h-11.8V121.8z"/>
<g>
	<polygon class="st0" points="253.9,78.5 253.9,111.9 285.7,111.9 285.7,191.8 329.2,191.8 329.2,111.9 365,111.9 331.6,78.5 	"/>
</g>
<polygon class="st1" points="428.8,113.4 428.8,0 315.4,0 "/>
</svg>
